<?xml version="1.0" encoding="iso-8859-1"?>
<!-- Generator: Adobe Illustrator 19.0.0, SVG Export Plug-In . SVG Version: 6.00 Build 0)  -->
<svg xmlns="http://www.w3.org/2000/svg" xmlns:xlink="http://www.w3.org/1999/xlink" version="1.1" id="Capa_1" x="0px" y="0px" viewBox="0 0 57.577 57.577" style="enable-background:new 0 0 57.577 57.577;" xml:space="preserve" width="512px" height="512px">
<g>
	<g>
	</g>
	<g>
		<path d="M48.96,38.361L29.128,41.81l-5.633-5.633c-0.187-0.188-0.441-0.293-0.707-0.293h-10c0-0.553-0.447-1-1-1h-4h-7v2h6v14h-6    v2h7h4c0.553,0,1-0.447,1-1h2.764l10.691,5.346c0.462,0.231,0.963,0.347,1.462,0.347c0.569,0,1.137-0.149,1.646-0.446    l21.816-12.727c1-0.583,1.621-1.664,1.621-2.822c0-0.967-0.425-1.879-1.165-2.502C50.885,38.457,49.91,38.196,48.96,38.361z     M10.788,50.884h-2v-14h2V50.884z M50.159,42.676L28.344,55.403c-0.37,0.216-0.821,0.23-1.206,0.038L16.236,49.99    c-0.139-0.07-0.293-0.106-0.448-0.106h-3v-12h9.586l7.879,7.879c0.34,0.34,0.535,0.811,0.535,1.293    c0,1.008-0.82,1.828-1.828,1.828c-0.481,0-0.953-0.195-1.293-0.535l-5.172-5.172l-1.414,1.414l5.172,5.172    c0.723,0.723,1.684,1.121,2.707,1.121c2.11,0,3.828-1.718,3.828-3.828c0-1.022-0.398-1.984-1.121-2.707l-0.81-0.81l18.444-3.208    c0.371-0.067,0.747,0.037,1.034,0.279c0.288,0.242,0.453,0.596,0.453,0.971C50.788,42.03,50.547,42.45,50.159,42.676z" fill="#91DC5A"/>
		<path d="M56.788,6.884v-2h-6.281c-0.182-0.189-0.435,0-0.719,0h-4c-0.553,0-1,0-1,1h-2.764l-10.692-5.5    c-0.991-0.496-2.153-0.535-3.107,0.022L6.409,13.094c-1,0.583-1.621,1.645-1.621,2.803c0,0.967,0.425,1.868,1.164,2.491    c0.595,0.5,1.338,0.763,2.102,0.763c0.188,0,0.375-0.019,0.562-0.051l19.831-3.45l5.633,5.787    c0.188,0.187,0.442,0.447,0.708,0.447h10c0,0,0.447,1,1,1h3.281c0.182,0,0.435,0,0.719,0h7v-2h-6v-14H56.788z M35.202,19.884    l-7.878-8.032c-0.346-0.346-0.536-0.883-0.536-1.371c0-1.009,0.82-1.868,1.828-1.868c0.488,0,0.947,0.171,1.293,0.517l5.172,5.161    l1.414-1.419L31.324,7.7c-0.723-0.725-1.685-1.124-2.708-1.124c-2.11,0-3.828,1.717-3.828,3.828c0,1.021,0.397,1.982,1.121,2.707    l0.809,0.809L8.274,17.128C7.9,17.193,7.527,17.09,7.239,16.849c-0.286-0.242-0.451-0.596-0.451-0.971    c0-0.45,0.241-0.87,0.629-1.096L29.232,2.056c0.37-0.215,0.821-0.23,1.206-0.038L41.34,7.624c0.139,0.069,0.293,0.26,0.448,0.26h3    v12H35.202z M46.788,6.884h2v14h-2V6.884z" fill="#91DC5A"/>
		<path d="M28.788,23.932c-1.629-1.426-4.175-1.389-5.757,0.116c-0.802,0.764-1.243,1.782-1.243,2.869    c0,1.086,0.441,2.104,1.243,2.867l5.067,4.824c0.194,0.184,0.442,0.276,0.69,0.276c0.248,0,0.496-0.092,0.689-0.275l5.067-4.824    c0.803-0.764,1.244-1.782,1.244-2.868c0-1.087-0.441-2.105-1.243-2.869c0-0.001,0-0.001,0-0.001    C32.962,22.542,30.416,22.507,28.788,23.932z M33.166,28.335l-4.378,4.168l-4.378-4.168c-0.4-0.382-0.622-0.886-0.622-1.419    s0.221-1.038,0.622-1.42c0.431-0.41,0.997-0.615,1.562-0.615c0.566,0,1.132,0.205,1.562,0.615l0.563,0.536    c0.387,0.367,0.992,0.367,1.379,0l0.563-0.536c0.861-0.82,2.262-0.819,3.125-0.001c0.403,0.383,0.624,0.888,0.624,1.421    S33.566,27.953,33.166,28.335z" fill="#91DC5A"/>
		<path d="M17.184,21.049l-1.658-1.119c-0.398,0.59-0.76,1.21-1.073,1.841l1.791,0.891C16.517,22.109,16.834,21.567,17.184,21.049z" fill="#91DC5A"/>
		<path d="M13.123,32.159c0.146,0.698,0.339,1.39,0.574,2.053l1.885-0.666c-0.205-0.58-0.374-1.185-0.502-1.797L13.123,32.159z" fill="#91DC5A"/>
		<path d="M13.085,25.802l1.963,0.383c0.119-0.61,0.28-1.216,0.479-1.802l-1.895-0.643C13.405,24.41,13.222,25.104,13.085,25.802z" fill="#91DC5A"/>
		<path d="M12.788,28.887c0.001,0.389,0.015,0.775,0.042,1.158l1.994-0.141c-0.023-0.337-0.035-0.679-0.036-1.02    c0-0.284,0.008-0.566,0.025-0.847l-1.996-0.123C12.798,28.236,12.788,28.559,12.788,28.887z" fill="#91DC5A"/>
		<path d="M41.992,24.218c0.208,0.589,0.376,1.193,0.501,1.796l1.959-0.406c-0.144-0.69-0.337-1.381-0.573-2.054L41.992,24.218z" fill="#91DC5A"/>
		<path d="M40.393,36.715l1.656,1.121c0.398-0.589,0.761-1.208,1.075-1.842l-1.791-0.891C41.059,35.658,40.742,36.2,40.393,36.715z" fill="#91DC5A"/>
		<path d="M42.05,33.383l1.895,0.643c0.228-0.67,0.411-1.363,0.548-2.062l-1.963-0.383C42.41,32.192,42.249,32.797,42.05,33.383z" fill="#91DC5A"/>
		<path d="M44.788,28.887c0.001-0.393-0.014-0.783-0.042-1.17l-1.994,0.146c0.024,0.336,0.037,0.676,0.036,1.021    c0,0.283-0.008,0.564-0.025,0.844l1.996,0.123C44.778,29.53,44.788,29.208,44.788,28.887z" fill="#91DC5A"/>
	</g>
</g>
<g>
</g>
<g>
</g>
<g>
</g>
<g>
</g>
<g>
</g>
<g>
</g>
<g>
</g>
<g>
</g>
<g>
</g>
<g>
</g>
<g>
</g>
<g>
</g>
<g>
</g>
<g>
</g>
<g>
</g>
</svg>
