<?xml version="1.0" encoding="iso-8859-1"?>
<svg xmlns="http://www.w3.org/2000/svg" xmlns:xlink="http://www.w3.org/1999/xlink" version="1.1" viewBox="0 0 463 463" enable-background="new 0 0 463 463" width="512px" height="512px">
  <g>
    <path d="m407.5,88h-88.5v-32.5c0-21.78-17.72-39.5-39.5-39.5h-96c-21.78,0-39.5,17.72-39.5,39.5v32.5h-88.5c-30.603,0-55.5,24.897-55.5,55.5v128c0,12.99 6.305,24.533 16.013,31.736-0.003,0.089-0.013,0.175-0.013,0.264v88c0,30.603 24.897,55.5 55.5,55.5h320c30.603,0 55.5-24.897 55.5-55.5v-88c0-0.089-0.01-0.175-0.013-0.264 9.708-7.203 16.013-18.746 16.013-31.736v-128c0-30.603-24.897-55.5-55.5-55.5zm-248.5-32.5c0-13.509 10.99-24.5 24.5-24.5h96c13.51,0 24.5,10.991 24.5,24.5v32.5h-17v-32.5c0-4.142-3.357-7.5-7.5-7.5h-96c-4.143,0-7.5,3.358-7.5,7.5v32.5h-17v-32.5zm32,32.5v-25h81v25h-81zm241,303.5c0,22.332-18.168,40.5-40.5,40.5h-320c-22.332,0-40.5-18.168-40.5-40.5v-81.431c2.74,0.604 5.582,0.931 8.5,0.931h40.5v8.5c0,12.958 10.542,23.5 23.5,23.5h16c12.958,0 23.5-10.542 23.5-23.5v-8.5h177v8.5c0,12.958 10.542,23.5 23.5,23.5h16c12.958,0 23.5-10.542 23.5-23.5v-8.5h40.5c2.918,0 5.76-0.328 8.5-0.931v81.431zm-304-95.5h-33v-8.5c0-4.687 3.813-8.5 8.5-8.5h16c4.687,0 8.5,3.813 8.5,8.5v8.5zm0,15v8.5c0,4.687-3.813,8.5-8.5,8.5h-16c-4.687,0-8.5-3.813-8.5-8.5v-8.5h33zm240-15h-33v-8.5c0-4.687 3.813-8.5 8.5-8.5h16c4.687,0 8.5,3.813 8.5,8.5v8.5zm0,15v8.5c0,4.687-3.813,8.5-8.5,8.5h-16c-4.687,0-8.5-3.813-8.5-8.5v-8.5h33zm80-39.5c0,13.509-10.99,24.5-24.5,24.5h-40.5v-8.5c0-12.958-10.542-23.5-23.5-23.5h-16c-12.958,0-23.5,10.542-23.5,23.5v8.5h-177v-8.5c0-12.958-10.542-23.5-23.5-23.5h-16c-12.958,0-23.5,10.542-23.5,23.5v8.5h-40.5c-13.51,0-24.5-10.991-24.5-24.5v-128c0-22.332 18.168-40.5 40.5-40.5h352c22.332,0 40.5,18.168 40.5,40.5v128z" fill="#91DC5A"/>
  </g>
</svg>
